# xmcd
#
# Track frame offsets: 
#        150
#        30214
#        45327
#        59201
#        72265
#        86994
#        101563
#        119419
#        138294
#        156217
#        171934
#        188367
#        203349
#        219619
#
# Disc length: 3138 seconds
#
# Revision: 2
# Processed by: cddbd v1.5.2PL0 Copyright (c) Steve Scherf et al.
# Submitted via: ExactAudioCopy v1.0b4
#
DISCID=be0c400e
DTITLE=Petrúcio Amorim - Canta Gonzagão
DYEAR=2012
DGENRE=Forró
TTITLE0=ONDE TU TÁ NENEM-VOU TE MATAR DE CHEIRO-TEI TEI NO ARRAIÁ-SÃO 
TTITLE0=JOÃO NA ROÇA
TTITLE1=CIGARRO DE PAIA
TTITLE2=IMBALANÁ
TTITLE3=RANCHINHO DE PAIA
TTITLE4=XOTE DOS CABELUDOS
TTITLE5=CIDADÃO DE CARUARU
TTITLE6=AMANHÃ EU VOU
TTITLE7=O REI NAS ESTRELAS
TTITLE8=SONHO SERTANEJO
TTITLE9=CAVALEIROS DO MEU SONHO
TTITLE10=ANJO MALANDRINHO
TTITLE11=FIM DE TARDE
TTITLE12=TUDO DEMAIS É VENENO
TTITLE13=NEM PEDRA NEM MADEIRA
EXTD=
EXTT0=
EXTT1=
EXTT2=
EXTT3=
EXTT4=
EXTT5=
EXTT6=
EXTT7=
EXTT8=
EXTT9=
EXTT10=
EXTT11=
EXTT12=
EXTT13=
PLAYORDER=
